<svg width="350" height="329" viewBox="0 0 350 329" fill="none" xmlns="http://www.w3.org/2000/svg">
<g clip-path="url(#clip0_493_511)">
<path d="M346.927 184.765H119.636C118.821 184.765 118.04 184.441 117.464 183.864C116.888 183.288 116.564 182.507 116.563 181.693V40.9163H350V181.693C349.999 182.507 349.675 183.288 349.099 183.864C348.523 184.441 347.742 184.765 346.927 184.765Z" fill="#E6E6E6"/>
<path d="M340.262 175.968H126.301C125.477 175.967 124.688 175.639 124.105 175.057C123.523 174.475 123.195 173.685 123.194 172.862V56.9272C123.195 56.1037 123.523 55.3141 124.105 54.7318C124.688 54.1494 125.477 53.8219 126.301 53.8209H340.262C341.086 53.8218 341.876 54.1494 342.458 54.7317C343.04 55.3141 343.368 56.1036 343.369 56.9272V172.862C343.368 173.685 343.04 174.475 342.458 175.057C341.876 175.639 341.086 175.967 340.262 175.968Z" fill="white"/>
<path d="M349.9 45.2634H116.464V38.0729C116.465 37.2582 116.789 36.4771 117.365 35.901C117.941 35.3249 118.722 35.0009 119.536 35H346.828C347.642 35.0009 348.423 35.3249 348.999 35.901C349.575 36.4771 349.9 37.2582 349.9 38.0729L349.9 45.2634Z" fill="#008D53"/>
<path d="M124.003 42.0783C125.016 42.0783 125.838 41.2566 125.838 40.2431C125.838 39.2295 125.016 38.4078 124.003 38.4078C122.989 38.4078 122.167 39.2295 122.167 40.2431C122.167 41.2566 122.989 42.0783 124.003 42.0783Z" fill="white"/>
<path d="M130.969 42.0783C131.982 42.0783 132.804 41.2566 132.804 40.2431C132.804 39.2295 131.982 38.4078 130.969 38.4078C129.955 38.4078 129.134 39.2295 129.134 40.2431C129.134 41.2566 129.955 42.0783 130.969 42.0783Z" fill="white"/>
<path d="M137.935 42.0783C138.949 42.0783 139.77 41.2566 139.77 40.2431C139.77 39.2295 138.949 38.4078 137.935 38.4078C136.921 38.4078 136.1 39.2295 136.1 40.2431C136.1 41.2566 136.921 42.0783 137.935 42.0783Z" fill="white"/>
<path d="M167.237 74.6099H145.185V84.3707H167.237V74.6099Z" fill="#E6E6E6"/>
<path d="M211.341 94.8545H189.289V104.615H211.341V94.8545Z" fill="#E6E6E6"/>
<path d="M167.237 125.222H145.185V134.982H167.237V125.222Z" fill="#008D53"/>
<path d="M211.341 145.466H189.289V155.227H211.341V145.466Z" fill="#008D53"/>
<path d="M321.241 155.589H299.188V165.349H321.241V155.589Z" fill="#008D53"/>
<path d="M299.189 115.099H277.136V124.86H299.189V115.099Z" fill="#E6E6E6"/>
<path d="M255.446 115.099H211.341V124.86H255.446V115.099Z" fill="#008D53"/>
<path d="M255.446 64.1261H211.341V73.8869H255.446V64.1261Z" fill="#008D53"/>
<path d="M123.132 53.6422V176.195H343.654V53.6422L123.132 53.6422ZM342.931 63.7947H321.675V54.3653H342.931V63.7947ZM211.775 134.862V125.432H255.012V134.862H211.775ZM255.012 135.585V145.014H211.775V135.585H255.012ZM255.012 94.9751V104.404H211.775V94.9751H255.012ZM211.775 94.252V84.8226H255.012V94.252H211.775ZM211.775 114.557V105.127H255.012V114.557H211.775ZM255.012 115.28V124.709H211.775V115.28H255.012ZM211.052 104.404H189.795V94.9751H211.052V104.404ZM211.052 105.127V114.557H189.795V105.127H211.052ZM211.052 115.28V124.709H189.795V115.28H211.052ZM211.052 125.432V134.862H189.795V125.432H211.052ZM255.735 125.432H276.992V134.862H255.735L255.735 125.432ZM255.735 124.709V115.28H276.992V124.709H255.735ZM255.735 114.557V105.127H276.992V114.557H255.735ZM255.735 104.404V94.9751H276.992V104.404H255.735ZM255.735 94.252V84.8226H276.992V94.252H255.735ZM255.735 84.0995V74.6701H276.992V84.0995H255.735ZM255.012 84.0995H211.775V74.6701H255.012L255.012 84.0995ZM211.052 84.0995H189.795V74.6701H211.052V84.0995ZM211.052 84.8226V94.252H189.795V84.8226H211.052ZM189.072 94.252H167.815V84.8226H189.072L189.072 94.252ZM189.072 94.9751V104.404H167.815V94.9751H189.072ZM189.072 105.127V114.557H167.815V105.127H189.072ZM189.072 115.28V124.709H167.815V115.28H189.072ZM189.072 125.432V134.862H167.815V125.432H189.072ZM189.072 135.585V145.014H167.815V135.585H189.072ZM189.795 135.585H211.052V145.014H189.795V135.585ZM211.052 145.737V155.167H189.795V145.737H211.052ZM211.775 145.737H255.012V155.167H211.775V145.737ZM255.735 145.737H276.992V155.167H255.735L255.735 145.737ZM255.735 145.014V135.585H276.992V145.014H255.735ZM277.715 135.585H298.972V145.014H277.715L277.715 135.585ZM277.715 134.862V125.432H298.972V134.862H277.715ZM277.715 124.709V115.28H298.972V124.709H277.715ZM277.715 114.557V105.127H298.972V114.557H277.715ZM277.715 104.404V94.9751H298.972V104.404H277.715ZM277.715 94.252V84.8226H298.972V94.252H277.715ZM277.715 84.0995V74.6701H298.972V84.0995H277.715ZM277.715 73.947V64.5177H298.972V73.947H277.715ZM276.992 73.947H255.735V64.5177H276.992L276.992 73.947ZM255.012 73.947H211.775V64.5177H255.012L255.012 73.947ZM211.052 73.947H189.795V64.5177H211.052V73.947ZM189.072 73.947H167.815V64.5177H189.072L189.072 73.947ZM189.072 74.6701V84.0995H167.815V74.6701H189.072ZM167.092 84.0995H145.835V74.6701H167.092V84.0995ZM167.092 84.8226V94.252H145.835V84.8226H167.092ZM167.092 94.9751V104.404H145.835V94.9751H167.092ZM167.092 105.127V114.557H145.835V105.127H167.092ZM167.092 115.28V124.709H145.835V115.28H167.092ZM167.092 125.432V134.862H145.835V125.432H167.092ZM167.092 135.585V145.014H145.835V135.585H167.092ZM167.092 145.737V155.167H145.835V145.737H167.092ZM167.815 145.737H189.072V155.167H167.815L167.815 145.737ZM189.072 155.89V165.319H167.815V155.89H189.072ZM189.795 155.89H211.052V165.319H189.795V155.89ZM211.775 155.89H255.012V165.319H211.775V155.89ZM255.735 155.89H276.992V165.319H255.735L255.735 155.89ZM277.715 155.89H298.972V165.319H277.715L277.715 155.89ZM277.715 155.167V145.737H298.972V155.167H277.715ZM299.695 145.737H320.952V155.167H299.695V145.737ZM299.695 145.014V135.585H320.952V145.014H299.695ZM299.695 134.862V125.432H320.952V134.862H299.695ZM299.695 124.709V115.28H320.952V124.709H299.695ZM299.695 114.557V105.127H320.952V114.557H299.695ZM299.695 104.404V94.9751H320.952V104.404H299.695ZM299.695 94.252V84.8226H320.952V94.252H299.695ZM299.695 84.0995V74.6701H320.952V84.0995H299.695ZM299.695 73.947V64.5177H320.952V73.947H299.695ZM299.695 63.7947V54.3653H320.952V63.7947L299.695 63.7947ZM298.972 63.7947H277.715V54.3653H298.972L298.972 63.7947ZM276.992 63.7947H255.735V54.3653H276.992L276.992 63.7947ZM255.012 63.7947H211.775V54.3653H255.012L255.012 63.7947ZM211.052 63.7947H189.795V54.3653H211.052V63.7947ZM189.072 63.7947H167.815V54.3653H189.072L189.072 63.7947ZM167.092 63.7947H145.835V54.3653H167.092V63.7947ZM167.092 64.5177V73.947H145.835V64.5177H167.092ZM145.112 73.947H123.855V64.5177H145.112L145.112 73.947ZM145.112 74.6701V84.0995H123.855V74.6701H145.112ZM145.112 84.8226V94.252H123.855V84.8226H145.112ZM145.112 94.9751V104.404H123.855V94.9751H145.112ZM145.112 105.127V114.557H123.855V105.127H145.112ZM145.112 115.28V124.709H123.855V115.28H145.112ZM145.112 125.432V134.862H123.855V125.432H145.112ZM145.112 135.585V145.014H123.855V135.585H145.112ZM145.112 145.737V155.167H123.855V145.737H145.112ZM145.112 155.89V165.319H123.855V155.89H145.112ZM145.835 155.89H167.092V165.319H145.835L145.835 155.89ZM167.092 166.042V175.472H145.835V166.042H167.092ZM167.815 166.042H189.072V175.472H167.815L167.815 166.042ZM189.795 166.042H211.052V175.472H189.795L189.795 166.042ZM211.775 166.042H255.012V175.472H211.775L211.775 166.042ZM255.735 166.042H276.992V175.472H255.735V166.042ZM277.715 166.042H298.972V175.472H277.715L277.715 166.042ZM299.695 166.042H320.952V175.472H299.695V166.042ZM299.695 165.319V155.89H320.952V165.319H299.695ZM321.675 155.89H342.931V165.319H321.675V155.89ZM321.675 155.167V145.737H342.931V155.167H321.675ZM321.675 145.014V135.585H342.931V145.014H321.675ZM321.675 134.862V125.432H342.931V134.862H321.675ZM321.675 124.709V115.28H342.931V124.709H321.675ZM321.675 114.557V105.127H342.931V114.557H321.675ZM321.675 104.404V94.9751H342.931V104.404H321.675ZM321.675 94.252V84.8226H342.931V94.252H321.675ZM321.675 84.0995V74.6701H342.931V84.0995H321.675ZM321.675 73.947V64.5177H342.931V73.947H321.675ZM145.112 54.3653V63.7947H123.855V54.3653H145.112ZM123.855 166.042H145.112V175.472H123.855V166.042ZM321.675 175.472V166.042H342.931V175.472H321.675Z" fill="#E6E6E6"/>
</g>
<g clip-path="url(#clip1_493_511)">
<path d="M75.618 99.9849C73.6021 100.753 71.5435 101.404 69.4526 101.935C66.6906 102.608 65.1312 102.92 62.4654 101.885C62.3718 101.849 62.2824 101.813 62.1981 101.778C57.1452 99.6292 52.8259 96.0583 49.7658 91.4994C46.7058 86.9406 45.037 81.5904 44.9627 76.1003C44.9494 75.912 44.9494 75.714 44.9494 75.5208C44.9468 74.5903 44.9912 73.6603 45.0826 72.7343C45.1994 71.473 45.4012 70.221 45.6866 68.9868L45.6599 68.982C43.5016 66.775 42.6712 63.7519 42.9465 60.7142C43.1351 58.6549 43.7887 56.6652 44.858 54.8951C45.9273 53.125 47.3843 51.6207 49.1194 50.4955C51.8387 48.7859 54.9047 47.7036 58.0947 47.3275C58.9512 47.2287 59.8126 47.1787 60.6749 47.1778H68.7752C70.4482 46.7861 72.1477 46.5182 73.8601 46.3761H73.8734C90.1762 45.0239 103.033 55.8318 101.834 68.982C101.825 68.9965 101.812 69.0109 101.803 69.0254C101.456 69.5905 101.15 70.1265 100.879 70.6384C100.617 71.1165 100.395 71.5753 100.204 72.0099C98.7162 75.3711 105.786 127.52 103.25 128.312C101.807 128.761 95.9894 89.9556 97.0331 97.3347C98.3476 106.592 83.1286 97.2085 75.618 99.9849Z" fill="#2F2E41"/>
<path d="M100.177 194.255L122.776 242.399L35.8434 233.595L53.9902 187.377L100.177 194.255Z" fill="#FFB6B6"/>
<path d="M145.543 290.782C130.426 295.814 114.495 297.948 98.5863 297.072L91.6685 285.853C91.6685 285.853 91.3788 290.031 90.9467 296.419C83.3739 295.541 75.8998 293.957 68.6223 291.686C54.8211 287.37 41.884 280.683 28.7702 274.517C26.114 258.683 25.1174 234.267 39.8023 220.053L118.844 234.537C118.844 234.537 131.525 244.022 128.133 247.42C124.74 250.813 124.215 250.287 126.444 252.516C128.673 254.745 133.489 257.725 133.538 259.675C133.558 260.436 138.964 274.237 145.543 290.782Z" fill="#2F2E41"/>
<path d="M86.3747 101.222L67.2785 102.554L54.9359 114.481L50.6133 115.252C46.7278 115.945 43.2316 118.04 40.7876 121.139C38.3437 124.238 37.122 128.126 37.3541 132.066C38.2432 147.13 40.234 169.639 44.395 176.941C50.8469 188.265 56.1761 184.712 50.8469 188.265C45.5178 191.818 41.9399 189.026 44.395 194.641C46.8501 200.255 41.0768 207.457 41.0768 207.457L38.7786 209.756L41.2161 210.755L118.886 220.861C118.886 220.861 112.17 190.665 116.37 183.248C120.57 175.83 130.754 153.408 121.665 144.635L112.779 113.363L97.4927 108.855L86.3747 101.222Z" fill="#008D53"/>
<path d="M201.973 225.154C200.695 225.113 199.441 224.795 198.298 224.223C197.155 223.65 196.149 222.836 195.352 221.836C194.554 220.837 193.984 219.676 193.679 218.434C193.374 217.192 193.343 215.899 193.587 214.644L157.154 189.97L161.501 178.215L204.559 207.837C206.641 208.405 208.442 209.717 209.621 211.525C210.801 213.332 211.276 215.509 210.957 217.644C210.638 219.778 209.548 221.722 207.892 223.106C206.236 224.49 204.13 225.219 201.973 225.154Z" fill="#FFB6B6"/>
<path d="M99.0668 111.886L93.7727 113.982L122.014 169.14L180.479 208.991L188.906 194.747L144.402 156.307L126.585 122.136C124.078 117.327 119.877 113.618 114.795 111.725C109.713 109.832 104.109 109.889 99.0668 111.886Z" fill="#008D53"/>
<path d="M75.833 96.3709C86.4232 96.3709 95.0082 87.7858 95.0082 77.1956C95.0082 66.6054 86.4232 58.0204 75.833 58.0204C65.2428 58.0204 56.6577 66.6054 56.6577 77.1956C56.6577 87.7858 65.2428 96.3709 75.833 96.3709Z" fill="#FFB6B6"/>
<path d="M92.5077 69.087C92.1879 69.2557 91.8726 69.4111 91.5529 69.5666C91.2198 69.7264 90.8867 69.8863 90.5492 70.0373C84.132 72.9461 78.905 73.2703 75.7341 69.087C75.6474 66.8861 75.1519 64.7205 74.2731 62.7008C74.4284 64.9578 73.8335 67.2029 72.5811 69.087H66.1949C59.6178 73.4524 56.2427 77.4626 60.808 91.7936C61.1056 92.7351 63.144 126.184 63.7257 128.756C53.7691 124.937 45.1803 84.3861 44.9627 73.7011C44.9493 73.5279 44.9493 73.3458 44.9493 73.1682C44.9467 72.3122 44.9912 71.4568 45.0826 70.6057C45.1997 69.4438 45.4016 68.2921 45.6865 67.1596L45.6599 67.1551C44.6468 66.1866 43.874 64.9949 43.4029 63.6749C42.9318 62.355 42.7755 60.9432 42.9465 59.5522C44.6167 57.3652 46.6837 55.5121 49.0395 54.0898C51.1816 53.0525 53.4144 52.2141 55.7098 51.5851C55.7675 51.5718 55.8164 51.5584 55.8741 51.5451C56.5758 51.3541 57.2952 51.181 58.0147 51.03C59.4973 50.719 60.9963 50.4922 62.5045 50.3505C62.6155 50.3461 62.7221 50.3372 62.8198 50.3372C63.4231 50.3376 64.0151 50.5001 64.534 50.8079C64.5384 50.8079 64.5384 50.8124 64.5473 50.8124C65.0459 51.1102 65.4593 51.5315 65.7479 52.0355C66.0365 52.5395 66.1904 53.1093 66.1949 53.6901H73.3094C73.5714 53.6901 73.8334 53.699 74.0954 53.7123C84.0032 54.1075 91.9659 58.3442 92.4766 68.0833C92.4988 68.4208 92.5077 68.7494 92.5077 69.087Z" fill="#2F2E41"/>
<path d="M50.4459 69.8578C57.4228 69.8578 63.0786 64.2019 63.0786 57.2251C63.0786 50.2482 57.4228 44.5923 50.4459 44.5923C43.469 44.5923 37.8131 50.2482 37.8131 57.2251C37.8131 64.2019 43.469 69.8578 50.4459 69.8578Z" fill="#2F2E41"/>
<path d="M67.7893 51.382C66.3541 58.2096 59.2733 62.2932 52.4994 60.6228C49.2464 59.8206 46.4453 57.759 44.7123 54.8916C42.9793 52.0242 42.4564 48.5858 43.2586 45.3328C44.929 38.5589 53.15 40.5117 58.5485 36.092C66.1853 29.8397 69.7248 42.1743 67.7893 51.382Z" fill="#2F2E41"/>
<path d="M39.7211 241.438C50.4878 197.532 71.8209 159.794 107.151 130.226C108.519 127.977 110.723 126.362 113.279 125.735C115.836 125.108 118.537 125.522 120.789 126.884L204.779 177.809C207.028 179.176 208.643 181.38 209.27 183.936C209.897 186.493 209.483 189.194 208.121 191.446C194.636 236.499 174.438 275.593 140.691 302.658C139.324 304.908 137.12 306.523 134.563 307.149C132.006 307.776 129.306 307.363 127.053 306.001L43.0635 255.076C40.8142 253.709 39.199 251.505 38.5724 248.948C37.9458 246.391 38.3589 243.691 39.7211 241.438Z" fill="#F2F2F2"/>
<path opacity="0.2" d="M54.6495 256.235C52.4001 254.868 50.785 252.664 50.1584 250.107C49.5318 247.551 49.945 244.85 51.3072 242.597C62.0738 198.691 83.407 160.953 118.737 131.385C119.643 129.913 120.921 128.706 122.442 127.886L120.789 126.884C118.537 125.522 115.836 125.108 113.279 125.735C110.723 126.361 108.519 127.977 107.151 130.226C71.821 159.793 50.4879 197.532 39.7213 241.438C38.359 243.69 37.9459 246.391 38.5725 248.948C39.1991 251.505 40.8142 253.708 43.0636 255.076L127.053 306.001C128.548 306.9 130.254 307.388 131.999 307.416C133.743 307.444 135.464 307.009 136.986 306.158L54.6495 256.235Z" fill="black"/>
<path d="M153.148 231.705L96.7702 197.735C95.8745 197.194 95.2302 196.319 94.979 195.303C94.7277 194.287 94.8899 193.213 95.43 192.317C95.9701 191.42 96.8439 190.775 97.8595 190.522C98.8751 190.27 99.9494 190.431 100.846 190.969L157.224 224.939C158.118 225.481 158.76 226.356 159.01 227.371C159.26 228.386 159.097 229.458 158.558 230.353C158.018 231.249 157.146 231.894 156.132 232.147C155.118 232.4 154.045 232.241 153.148 231.705Z" fill="white"/>
<path d="M120.351 186.657L107.948 179.184C107.049 178.646 106.401 177.774 106.145 176.758C105.89 175.742 106.048 174.666 106.586 173.767C107.124 172.869 107.997 172.22 109.012 171.965C110.028 171.71 111.104 171.868 112.003 172.406L112.024 172.419L124.427 179.892C125.321 180.434 125.963 181.309 126.213 182.324C126.464 183.339 126.301 184.412 125.762 185.307C125.222 186.202 124.35 186.847 123.335 187.1C122.321 187.354 121.248 187.194 120.351 186.657Z" fill="white"/>
<path d="M144.188 246.576L87.8098 212.606C86.9131 212.066 86.2675 211.192 86.0148 210.176C85.7621 209.16 85.923 208.086 86.4621 207.189C87.0013 206.291 87.8746 205.645 88.8901 205.391C89.9057 205.138 90.9804 205.297 91.8781 205.836L91.8861 205.841L148.264 239.81C149.157 240.353 149.799 241.227 150.049 242.242C150.299 243.257 150.137 244.329 149.597 245.225C149.058 246.12 148.186 246.765 147.172 247.018C146.158 247.271 145.084 247.112 144.188 246.576Z" fill="white"/>
<path d="M160.307 167.654C169.402 167.654 176.774 160.281 176.774 151.187C176.774 142.093 169.402 134.72 160.307 134.72C151.213 134.72 143.841 142.093 143.841 151.187C143.841 160.281 151.213 167.654 160.307 167.654Z" fill="#3F3D56"/>
<path d="M131.923 327.634C151.361 327.634 167.118 311.876 167.118 292.439C167.118 273.001 151.361 257.243 131.923 257.243C112.485 257.243 96.7278 273.001 96.7278 292.439C96.7278 311.876 112.485 327.634 131.923 327.634Z" fill="white"/>
<path d="M131.923 328.125C124.865 328.125 117.965 326.032 112.097 322.111C106.228 318.19 101.654 312.616 98.9532 306.095C96.2522 299.574 95.5455 292.399 96.9224 285.477C98.2993 278.554 101.698 272.196 106.689 267.205C111.68 262.214 118.038 258.815 124.961 257.438C131.883 256.061 139.059 256.768 145.579 259.469C152.1 262.17 157.674 266.744 161.595 272.612C165.516 278.481 167.609 285.38 167.609 292.438C167.599 301.9 163.835 310.971 157.145 317.661C150.455 324.351 141.384 328.114 131.923 328.125ZM131.923 257.734C125.059 257.734 118.349 259.77 112.642 263.583C106.935 267.397 102.487 272.817 99.8603 279.158C97.2336 285.499 96.5464 292.477 97.8855 299.209C99.2246 305.941 102.53 312.125 107.383 316.978C112.237 321.832 118.421 325.137 125.153 326.476C131.885 327.815 138.862 327.128 145.204 324.501C151.545 321.875 156.965 317.426 160.779 311.719C164.592 306.012 166.627 299.302 166.627 292.438C166.617 283.238 162.957 274.416 156.451 267.91C149.945 261.404 141.124 257.745 131.923 257.734Z" fill="#3F3D56"/>
<path d="M127.122 310.756C126.514 310.756 125.914 310.615 125.371 310.343C124.827 310.071 124.354 309.676 123.99 309.19L114.388 296.387C114.079 295.976 113.854 295.508 113.726 295.01C113.598 294.511 113.57 293.993 113.642 293.484C113.715 292.974 113.887 292.484 114.149 292.042C114.411 291.599 114.758 291.212 115.169 290.904C115.581 290.595 116.049 290.371 116.547 290.243C117.046 290.116 117.564 290.087 118.074 290.16C118.583 290.233 119.073 290.406 119.515 290.668C119.957 290.931 120.344 291.278 120.652 291.69L126.934 300.065L143.068 275.864C143.353 275.436 143.72 275.069 144.147 274.783C144.574 274.497 145.054 274.297 145.558 274.197C146.062 274.096 146.581 274.095 147.085 274.195C147.59 274.295 148.069 274.493 148.497 274.778C148.925 275.063 149.292 275.43 149.578 275.857C149.865 276.284 150.064 276.764 150.165 277.268C150.265 277.772 150.266 278.291 150.166 278.795C150.066 279.3 149.868 279.78 149.583 280.207L130.379 309.013C130.032 309.534 129.565 309.964 129.017 310.267C128.469 310.57 127.856 310.737 127.231 310.755C127.194 310.756 127.158 310.756 127.122 310.756Z" fill="#008D53"/>
<path d="M205.071 179.481C206.47 179.361 207.536 178.476 207.453 177.503C207.37 176.53 206.168 175.838 204.77 175.958C203.371 176.077 202.305 176.963 202.388 177.936C202.471 178.909 203.672 179.601 205.071 179.481Z" fill="white"/>
<path d="M182.209 141.552C183.607 141.433 184.673 140.547 184.59 139.574C184.507 138.601 183.306 137.909 181.907 138.029C180.509 138.149 179.442 139.034 179.526 140.007C179.609 140.98 180.81 141.672 182.209 141.552Z" fill="#3F3D56"/>
<path d="M197.612 167.476C199.01 167.356 200.077 166.47 199.994 165.497C199.91 164.524 198.709 163.833 197.311 163.952C195.912 164.072 194.846 164.958 194.929 165.93C195.012 166.903 196.213 167.595 197.612 167.476Z" fill="#FF6584"/>
<path d="M191.011 163.607C191.613 163.471 191.943 162.659 191.747 161.794C191.552 160.929 190.905 160.337 190.303 160.473C189.701 160.609 189.372 161.421 189.567 162.287C189.763 163.152 190.409 163.743 191.011 163.607Z" fill="#E6E6E6"/>
<path d="M186.312 154.216C186.914 154.08 187.243 153.268 187.048 152.402C186.852 151.537 186.206 150.946 185.604 151.082C185.002 151.218 184.672 152.03 184.868 152.895C185.063 153.76 185.71 154.352 186.312 154.216Z" fill="#3F3D56"/>
<path d="M208.859 167.404C209.461 167.268 209.791 166.457 209.595 165.591C209.4 164.726 208.753 164.135 208.151 164.271C207.549 164.407 207.22 165.219 207.415 166.084C207.611 166.949 208.257 167.54 208.859 167.404Z" fill="#E6E6E6"/>
<path d="M201.986 173.11C202.588 172.974 202.917 172.162 202.722 171.297C202.526 170.432 201.88 169.841 201.278 169.977C200.676 170.113 200.347 170.924 200.542 171.79C200.738 172.655 201.384 173.246 201.986 173.11Z" fill="#FF6584"/>
<path d="M214.498 177.757C215.1 177.621 215.43 176.81 215.234 175.944C215.039 175.079 214.392 174.488 213.79 174.624C213.189 174.76 212.859 175.572 213.055 176.437C213.25 177.302 213.897 177.893 214.498 177.757Z" fill="#3F3D56"/>
<path d="M140.103 106.732C140.343 105.786 139.434 104.739 138.074 104.394C136.713 104.049 135.415 104.537 135.176 105.484C134.936 106.43 135.844 107.477 137.205 107.822C138.566 108.167 139.863 107.679 140.103 106.732Z" fill="white"/>
<path d="M123.487 106.625C123.727 105.679 122.818 104.632 121.457 104.287C120.097 103.942 118.799 104.43 118.559 105.376C118.319 106.323 119.228 107.37 120.589 107.715C121.949 108.06 123.247 107.572 123.487 106.625Z" fill="#3F3D56"/>
<path d="M143.221 120.518C143.461 119.571 142.552 118.524 141.192 118.18C139.831 117.835 138.534 118.323 138.294 119.269C138.054 120.216 138.962 121.263 140.323 121.607C141.684 121.952 142.981 121.464 143.221 120.518Z" fill="#FF6584"/>
<path d="M147.095 125.716C147.193 124.835 146.776 124.064 146.162 123.996C145.549 123.927 144.972 124.586 144.874 125.468C144.775 126.35 145.192 127.12 145.806 127.188C146.419 127.257 146.996 126.598 147.095 125.716Z" fill="#E6E6E6"/>
<path d="M148.461 136.129C148.559 135.247 148.142 134.477 147.529 134.408C146.915 134.34 146.338 134.999 146.24 135.88C146.141 136.762 146.559 137.532 147.172 137.601C147.785 137.669 148.362 137.01 148.461 136.129Z" fill="#3F3D56"/>
<path d="M131.473 116.286C131.572 115.404 131.154 114.634 130.541 114.565C129.928 114.497 129.351 115.156 129.252 116.037C129.154 116.919 129.571 117.689 130.184 117.758C130.798 117.826 131.375 117.167 131.473 116.286Z" fill="#E6E6E6"/>
<path d="M139.835 113.144C139.934 112.262 139.516 111.492 138.903 111.424C138.29 111.355 137.713 112.014 137.614 112.896C137.516 113.777 137.933 114.548 138.546 114.616C139.16 114.685 139.737 114.026 139.835 113.144Z" fill="#FF6584"/>
<path d="M129.534 104.657C129.632 103.775 129.215 103.005 128.601 102.937C127.988 102.868 127.411 103.527 127.313 104.409C127.214 105.29 127.631 106.061 128.245 106.129C128.858 106.198 129.435 105.539 129.534 104.657Z" fill="#3F3D56"/>
<path d="M44.9582 241.903C43.7033 241.389 42.575 240.608 41.6514 239.615C40.7279 238.622 40.0311 237.44 39.6092 236.151C39.1873 234.862 39.0505 233.497 39.2081 232.15C39.3658 230.803 39.8141 229.506 40.5222 228.35L13.467 190.319L22.1465 180.249L53.95 225.654C55.8084 226.99 57.1119 228.962 57.6135 231.196C58.1151 233.429 57.78 235.769 56.6716 237.772C55.5633 239.775 53.7587 241.302 51.5998 242.063C49.441 242.825 47.0778 242.768 44.9582 241.903Z" fill="#FFB6B6"/>
<path d="M45.5799 121.384C44.2112 120.578 42.6002 120.287 41.0361 120.563C39.4721 120.838 38.0574 121.662 37.046 122.886L0.490967 174.01L34.368 222.125L47.6242 207.887L27.0034 175.483L54.4086 149.39C56.6606 144.457 57.0046 138.864 55.3741 133.691C53.7435 128.519 50.2542 124.134 45.5799 121.384Z" fill="#008D53"/>
</g>
<defs>
<clipPath id="clip0_493_511">
<rect width="328.125" height="229.983" fill="white" transform="translate(21.875 35)"/>
</clipPath>
<clipPath id="clip1_493_511">
<rect width="282.532" height="328.125" fill="white"/>
</clipPath>
</defs>
</svg>
